<?xml version="1.0" encoding="UTF-8" standalone="no"?>
<svg
   xmlns:dc="http://purl.org/dc/elements/1.1/"
   xmlns:cc="http://creativecommons.org/ns#"
   xmlns:rdf="http://www.w3.org/1999/02/22-rdf-syntax-ns#"
   xmlns:svg="http://www.w3.org/2000/svg"
   xmlns="http://www.w3.org/2000/svg"
   xmlns:sodipodi="http://sodipodi.sourceforge.net/DTD/sodipodi-0.dtd"
   xmlns:inkscape="http://www.inkscape.org/namespaces/inkscape"
   width="1000"
   height="1000"
   viewBox="0 0 264.58333 264.58333"
   version="1.1"
   id="svg1986"
   inkscape:version="1.0.1 (3bc2e813f5, 2020-09-07)"
   sodipodi:docname="e016-folder.svg">
  <defs
     id="defs1980" />
  <sodipodi:namedview
     id="base"
     pagecolor="#ffffff"
     bordercolor="#666666"
     borderopacity="1.0"
     inkscape:pageopacity="0.0"
     inkscape:pageshadow="2"
     inkscape:zoom="0.35"
     inkscape:cx="1285.2941"
     inkscape:cy="604.20784"
     inkscape:document-units="mm"
     inkscape:current-layer="layer1"
     inkscape:document-rotation="0"
     showgrid="false"
     units="px"
     inkscape:pagecheckerboard="false"
     inkscape:window-width="1920"
     inkscape:window-height="1017"
     inkscape:window-x="-8"
     inkscape:window-y="-8"
     inkscape:window-maximized="1" />
  <metadata
     id="metadata1983">
    <rdf:RDF>
      <cc:Work
         rdf:about="">
        <dc:format>image/svg+xml</dc:format>
        <dc:type
           rdf:resource="http://purl.org/dc/dcmitype/StillImage" />
        <dc:title></dc:title>
      </cc:Work>
    </rdf:RDF>
  </metadata>
  <g
     inkscape:label="图层 1"
     inkscape:groupmode="layer"
     id="layer1">
    <path
       id="rect831"
       style="fill:#000000;fill-rule:evenodd;stroke-width:33.8931"
       d="m 32.67458,65.936391 c 0.07933,-4.3099 0.228609,-10.492507 3.475356,-13.735857 3.246746,-3.24335 12.961554,-3.265016 12.961554,-3.265016 l 55.06901,0.03337 c 0,0 6.55503,-0.469155 10.74649,2.731507 4.19146,3.200664 14.28448,16.872802 19.653,24.038624 7.5274,8.6486 6.79251,9.154198 17.50752,9.24073 l 65.68353,0.03662 c 0,0 7.14216,-0.392664 10.43362,2.900792 3.059,3.060846 3.53507,10.089816 3.53507,10.089816 l 0.16074,105.398663 c 0,0 0.3012,6.46421 -2.7285,9.54561 -2.90302,2.95256 -10.18568,2.69062 -10.18568,2.69062 l -171.970159,-0.0536 c 0,0 -6.097129,0.0673 -10.130071,-3.61844 -3.740191,-3.41818 -4.147502,-8.55309 -4.147502,-8.55309 z"
       sodipodi:nodetypes="cscczcccsccsccscc" />
  </g>
</svg>
