<?xml version="1.0" encoding="UTF-8" standalone="no"?>
<svg
   xmlns:dc="http://purl.org/dc/elements/1.1/"
   xmlns:cc="http://creativecommons.org/ns#"
   xmlns:rdf="http://www.w3.org/1999/02/22-rdf-syntax-ns#"
   xmlns:svg="http://www.w3.org/2000/svg"
   xmlns="http://www.w3.org/2000/svg"
   xmlns:sodipodi="http://sodipodi.sourceforge.net/DTD/sodipodi-0.dtd"
   xmlns:inkscape="http://www.inkscape.org/namespaces/inkscape"
   width="210mm"
   height="297mm"
   viewBox="0 0 210 297"
   version="1.1"
   id="svg8"
   inkscape:version="1.0.1 (3bc2e813f5, 2020-09-07)"
   sodipodi:docname="favicon.svg">
  <defs
     id="defs2" />
  <sodipodi:namedview
     id="base"
     pagecolor="#ffffff"
     bordercolor="#666666"
     borderopacity="1.0"
     inkscape:pageopacity="0.0"
     inkscape:pageshadow="2"
     inkscape:zoom="2"
     inkscape:cx="30.07479"
     inkscape:cy="192.20588"
     inkscape:document-units="mm"
     inkscape:current-layer="layer1"
     inkscape:document-rotation="0"
     showgrid="false"
     inkscape:window-width="1920"
     inkscape:window-height="1017"
     inkscape:window-x="-8"
     inkscape:window-y="-8"
     inkscape:window-maximized="1" />
  <metadata
     id="metadata5">
    <rdf:RDF>
      <cc:Work
         rdf:about="">
        <dc:format>image/svg+xml</dc:format>
        <dc:type
           rdf:resource="http://purl.org/dc/dcmitype/StillImage" />
        <dc:title></dc:title>
      </cc:Work>
    </rdf:RDF>
  </metadata>
  <g
     inkscape:label="图层 1"
     inkscape:groupmode="layer"
     id="layer1">
    <path
       style="fill:#019587;stroke:none;stroke-width:0.264583"
       d="M 0.05522551,0.00206911 V 67.735396 H 67.788556 V 0.00206911 H 0.05522551 M 56.411473,15.877068 c 1.881187,5.82e-4 3.973248,-0.144383 5.324475,1.431581 1.330325,1.551437 1.025525,3.817514 1.025525,5.712168 v 12.7 l 0,20.240623 c 0,4.62343 -1.679529,7.275776 -5.820833,7.275776 l -6.614583,2.7e-4 H 27.836474 21.486475 c -1.228276,-8e-4 -2.534532,0.03383 -3.691599,-0.42334 -2.609098,-1.21364 -2.393818,-4.249999 -2.393818,-6.720414 -2.756773,0 -3.067842,0.0037 -5.5932573,0.0037 -3.389498,-0.02226 -4.4588192,-2.87334 -4.4607772,-4.312674 L 5.3468915,43.9229 V 17.199984 l 4.23e-4,-6.614583 c 0.0049,-1.5561462 0.044,-3.1595742 1.220126,-4.3356999 1.176126,-1.176126 2.779581,-1.215257 4.3357015,-1.220126 l 6.614583,-4.23e-4 H 44.24064 l 7.8868,0.033541 c 2.496293,0.040724 4.255041,1.684245 4.242487,3.7841569 0.03079,2.053769 0.04155,5.266227 0.04155,7.030218 M 15.401058,51.860399 V 26.989567 c 0,-2.841783 -0.292855,-6.762432 1.811138,-9.01946 2.167625,-2.325291 6.167954,-2.093039 9.036778,-2.093039 H 52.17814 c 0.0016,-1.255965 -0.02945,-2.487788 -0.02816,-3.387972 0.0032,-2.253201 -0.570018,-3.208993 -3.940592,-3.2265852 l -6.085416,-2.6e-5 H 19.634391 l -6.614556,4.23e-4 c -0.903208,0.003 -2.178659,-0.143351 -2.880598,0.558588 C 9.3871055,10.573654 9.5817325,12.002377 9.5803575,12.966651 l -1.33e-4,8.202083 v 21.695832 l 4.24e-4,6.909302 c 0,1.588758 0.5258005,2.074568 1.7286575,2.074568 1.452761,0 2.687476,0.01196 4.091752,0.01196 m 6.970711,-31.739544 c -1.595264,0.0084 -2.730789,0.974488 -2.730789,2.63657 l -0.0066,6.084225 v 21.431249 l 0.0012,5.555986 c 0.02314,2.171663 1.029178,3.159064 2.909649,3.172351 l 6.084993,0.003 h 20.637499 l 5.55625,-2.6e-4 c 2.636643,-0.03204 3.665376,-1.113728 3.680848,-3.131055 l 0.0233,-5.599932 V 28.84165 l -0.0011,-5.556117 c -0.0071,-2.42876 -0.738718,-3.178523 -2.909887,-3.172195 l -6.084887,-0.0029 H 28.894808 l -5.55625,1.32e-4 m 6.526477,7.159228 c 1.42875,-0.735806 3.686968,1.093787 4.850606,1.761596 4.239683,2.432843 8.456347,4.905904 12.699999,7.331868 1.185862,0.677863 2.344851,2.031137 2.344851,3.611109 0.05624,1.719678 -1.36748,2.743124 -2.609434,3.473639 -3.334808,1.961356 -6.695017,3.885141 -10.054166,5.804428 -1.722967,0.98478 -3.450961,2.224882 -5.291138,2.9718 -3.042972,1.23534 -2.646362,-2.074333 -2.646362,-4.067968 V 33.339567 c 0,-1.489075 -0.07726,-3.002492 0.01879,-4.488921 0.03757,-0.580496 0.10477,-1.281075 0.686854,-1.580848 m 3.527689,6.598935 v 11.90625 l 10.31875,-5.820833 v -0.264583 z"
       id="path883"
       sodipodi:nodetypes="cccccccscccccccccccccscccccccssscscccccccccccccccccccccccccccccccccccssccccccc" />
  </g>
</svg>
